<svg xmlns="http://www.w3.org/2000/svg" width="13.406" height="10" viewBox="0 0 13.406 10">
  <defs>
    <style>
      .cls-1 {
        fill: #e64a49;
        fill-rule: evenodd;
      }
    </style>
  </defs>
  <path id="check" class="cls-1" d="M271.581,856.524l-7.894,7.894a0.508,0.508,0,0,1-.718,0l-0.159-.159h0l-0.172-.174-0.744-.744a0.163,0.163,0,0,1-.011-0.017l-3.415-3.439a0.508,0.508,0,0,1,0-.718l1.077-1.076a0.507,0.507,0,0,1,.717,0l3.071,3.093,6.455-6.455a0.507,0.507,0,0,1,.717,0l1.077,1.077A0.507,0.507,0,0,1,271.581,856.524Z" transform="translate(-258.344 -854.594)"/>
</svg>
