<svg xmlns="http://www.w3.org/2000/svg" xmlns:xlink="http://www.w3.org/1999/xlink" width="17.343" height="19.28" viewBox="0 0 17.343 19.28">
  <defs>
    <style>
      .cls-1 {
        fill: #db214f;
        fill-rule: evenodd;
        filter: url(#filter);
      }
    </style>
    <filter id="filter" x="950.688" y="1197.75" width="17.343" height="19.28" filterUnits="userSpaceOnUse">
      <feGaussianBlur result="blur" stdDeviation="1" in="SourceAlpha"/>
      <feFlood result="flood" flood-color="#ada897" flood-opacity="0.46"/>
      <feComposite result="composite" operator="out" in2="blur"/>
      <feOffset result="offset" dx="0.5" dy="0.866"/>
      <feComposite result="composite-2" operator="in" in2="SourceAlpha"/>
      <feBlend result="blend" mode="multiply" in2="SourceGraphic"/>
    </filter>
  </defs>
  <path id="Shape_40_copy" data-name="Shape 40 copy" class="cls-1" d="M959.826,1199.17c8.191,0.37,8.116,9.07,8.116,9.07-1.487-1.42-2.74-1.42-3.992,0-1.5-1.42-2.5-1.42-3.883,0v5.57c0.251,2.85-2.129,4.01-4.008,2.72-0.736-.51-0.626-2.33.251-2.07,1.879,2.46,1.988-.52,1.988-0.52v-5.7c-1.237-1.42-2.614-1.42-3.867,0-0.877-1.29-2.129-1.55-3.757,0,0,0,.1-8.38,7.89-8.95l0.5-1.55Z" transform="translate(-950.688 -1197.75)"/>
</svg>
